<svg version="1.2" xmlns="http://www.w3.org/2000/svg" viewBox="0 0 8192 8192" width="8192" height="8192">
	<title>ECIR FORMATION</title>
	<style>
		tspan { white-space:pre } 
		.s0 { fill: #004380 } 
		.s1 { fill: #ed7d24 } 
		.t2 { font-size: 587px;fill: #004380;font-weight: 700;font-family: "Helvetica-Condensed-Bold", "Helvetica Condensed" } 
		.t3 { font-size: 587px;fill: #ec7d23;font-weight: 700;font-family: "Helvetica-Condensed-Bold", "Helvetica Condensed" } 
	</style>
	<g id="Calque 1">
		<g id="&lt;Group&gt;">
			<path id="&lt;Path&gt;" class="s0" d="m7187.4 6186.3c-783.4 1082.2-1856 1640.6-3245.3 1605.7-690.8-17.4-1324-225.6-1897-594.8-417.8-269.2-762.4-607-1041.5-1023 32 0 51.9 0 71.8 0 306.7 0 613.6 4.5 920.2-1.6 183.7-3.7 345.1 48.1 490.8 146.7 80.8 54.7 154.3 120.1 227.1 184.7 468.9 416.3 1019.6 675.5 1656 739.8 1061.3 107.3 1942.2-235.9 2632.1-1014 57.2-64.5 115.1-55.9 185.8-43.5z"/>
			<path id="&lt;Path&gt;" class="s1" d="m7178.2 2014.1c-122.4 0-237 0-351.5 0-184.4 0-369.1-6.3-553.2 1.4-288.5 12-521.6-95.9-725.3-279.9-200.1-180.7-415.9-341.4-658.6-467.9-318-165.9-655.2-277.2-1015.4-320-951.2-112.9-1772.7 151-2466.6 779.1-72.1 65.3-140.7 135.8-200 211.6-50.1 63.9-105.1 92.3-194.7 68.7 291.7-431.5 662.1-785.2 1114.4-1061 453.1-276.3 946.5-451.6 1479.9-516.3 1797.8-218.1 3060.3 775.8 3571 1584.3z"/>
		</g>
		<g id="&lt;Group&gt;">
			<g id="&lt;Group&gt;">
				<path id="&lt;Compound Path&gt;" class="s1" d="m341.7 2319h1381.2v492.7h-555.6v466.3h518.3v468.7h-518.3v543.3h608.4v492.7h-1434z"/>
				<path id="&lt;Compound Path&gt;" class="s0" d="m4147.9 3393.4h-825.6v-429.1q0-187.1-26.8-233.6-26.9-46.4-118.3-46.4c-68.9 0-112.7 18.8-131.2 56.4q-27.9 56.4-27.8 243.8v1145.8c0 119.9 9.2 198.1 27.8 234.6 18.5 36.6 60.3 54.9 125.2 54.9 62.3 0 103.1-18.3 122.3-54.9 19.2-36.7 28.8-122.6 28.8-257.9v-309.8h825.6v95.9c0 254.8-23.3 435.5-69.8 542.1q-69.7 159.9-308.5 280.1c-159.2 80.2-355.4 120.3-588.5 120.3q-363.6 0-599.5-101.9c-157.2-68-261.3-162.1-312.4-282.3-51.1-120.2-76.6-301.1-76.6-542.5v-719.8q0-266.3 23.5-399.4 23.6-133.2 140.6-256.4 116.9-123.3 324.2-194.1c138.2-47.1 297.1-70.7 476.6-70.7 243.6 0 444.7 36.5 603.3 109.4q237.7 109.5 312.4 272.9c49.8 109 74.7 278.5 74.7 508.5z"/>
				<path id="&lt;Compound Path&gt;" class="s0" d="m5468.3 2319v2463.7h-825.6v-2463.7z"/>
				<path id="&lt;Compound Path&gt;" fill-rule="evenodd" class="s0" d="m6002.6 2319h585.5c390.3 0 654.5 11.6 792.7 35q207.2 35 337.9 179 130.6 143.9 130.6 459.1 0 287.9-92.3 386.9-92.3 99-363.3 118.8 245.5 47.2 329.9 126.2c56.3 52.8 91.4 101.1 105.1 145.2 13.8 44.1 20.6 165.6 20.6 364.2v649.3h-766.6v-818.4c0-131.8-13.6-213.5-40.8-244.9q-40.7-47.2-213.7-47.2v1110.5h-825.6zm825.6 420.7v550.4c94.1 0 160-9.9 197.8-29.8q56.7-29.8 56.7-193.4v-136.1c0-78.5-18.2-130-54.7-154.4q-54.7-36.7-199.8-36.7z"/>
			</g>
		</g>
	</g>
	<text id="FORMATION" style="transform: matrix(1.688,0,0,1.688,4093.968,5926.037)" >
		<tspan x="-1468.9" y="0" class="t2">F</tspan><tspan  y="0" class="t3">O</tspan><tspan  y="0" class="t3">R</tspan><tspan  y="0" class="t3">M</tspan><tspan  y="0" class="t3">A</tspan><tspan  y="0" class="t3">T</tspan><tspan  y="0" class="t3">I</tspan><tspan  y="0" class="t3">O</tspan><tspan  y="0" class="t3">N</tspan><tspan  y="0" class="t3">
</tspan>
	</text>
</svg>